<svg width="68" height="68" viewBox="0 0 68 68" fill="none" xmlns="http://www.w3.org/2000/svg">
<path d="M62.4219 17.7969L62.5813 17.6906C62.2625 17.1063 61.7844 16.575 61.3063 16.3094L35.6469 1.54064C35.2219 1.27501 34.6375 1.16876 34 1.16876C33.3625 1.16876 32.7781 1.32814 32.3531 1.54064L6.85312 16.3625C5.95 16.8938 5.3125 18.2219 5.3125 19.2313V48.8219C5.3125 49.4063 5.41875 50.0438 5.79062 50.6281L5.68437 50.6813C5.95 51.1063 6.32188 51.4781 6.69375 51.6906L32.3 66.5125C32.725 66.7781 33.3094 66.8844 33.9469 66.8844C34.5844 66.8844 35.1688 66.725 35.5938 66.5125L61.0938 51.6906C61.9969 51.1594 62.6344 49.8313 62.6344 48.8219V19.1781C62.6875 18.7531 62.6344 18.275 62.4219 17.7969ZM34 54.9844C22.4188 54.9844 13.0156 45.5813 13.0156 34C13.0156 22.4188 22.4188 13.0156 34 13.0156C41.8094 13.0156 48.6094 17.3188 52.2219 23.6406L45.3156 27.625C43.0844 23.6406 38.8344 20.9844 34 20.9844C26.8281 20.9844 20.9844 26.8281 20.9844 34C20.9844 41.1719 26.8281 47.0156 34 47.0156C38.8344 47.0156 43.0844 44.3594 45.3156 40.4281L52.1687 44.4656C48.5562 50.7344 41.7562 54.9844 34 54.9844ZM61.0938 32.9375H59.3938L58.9156 35.0625H61.0938V37.7188H58.4375L57.8 40.9063H55.1969L55.8344 37.7188H53.8156L53.1781 40.9063H50.6281L51.2656 37.7188H49.9375V35.0625H51.7969L52.275 32.9375H49.9375V30.2813H52.7531L53.3906 27.0938H55.9938L55.3562 30.2813H57.375L58.0125 27.0938H60.5625L59.925 30.2813H61.0938V32.9375ZM54.3469 35.0625H56.3656L56.8438 32.9375H54.825L54.3469 35.0625Z" fill="#90C18F"/>
</svg>
