<svg width="68" height="68" viewBox="0 0 68 68" fill="none" xmlns="http://www.w3.org/2000/svg">
<g clip-path="url(#clip0_191_57)">
<path d="M67.5519 51.6622L39.3125 2.13841C38.9617 1.52901 38.4178 1.00929 37.7385 0.634258C37.0593 0.259231 36.2698 0.0428557 35.4538 0.00803849C34.6362 -0.037205 33.8193 0.10353 33.0919 0.414938C32.3644 0.726345 31.7543 1.1965 31.3278 1.77428L0.699421 42.7408C0.233856 43.3594 -0.00858941 44.0747 0.000490122 44.8031C0.00956965 45.5314 0.269798 46.2425 0.750687 46.853L15.725 66.0029C16.2915 66.7218 17.1243 67.2701 18.0991 67.5662C19.0739 67.8623 20.1384 67.8901 21.134 67.6457L64.5899 57.0306C65.2443 56.8727 65.8499 56.6005 66.3659 56.2326C66.8819 55.8647 67.2962 55.4096 67.5809 54.8981C67.8616 54.3892 68.0046 53.8359 67.9999 53.2768C67.9953 52.7176 67.8431 52.166 67.554 51.6604L67.5519 51.6622ZM61.2295 53.7862L24.3547 62.7907C23.2297 63.0671 22.15 62.2618 22.384 61.3243L35.5585 9.23103C35.8047 8.25644 37.4346 8.10201 37.9499 9.004L62.338 51.7723C62.4458 51.9628 62.5023 52.1704 62.5035 52.3808C62.5048 52.5911 62.4508 52.7992 62.3452 52.9906C62.2397 53.182 62.0851 53.3522 61.8922 53.4896C61.6992 53.6269 61.4725 53.728 61.2277 53.7859L61.2295 53.7862Z" fill="#90C18F"/>
</g>
<defs>
<clipPath id="clip0_191_57">
<rect width="68" height="68" fill="white"/>
</clipPath>
</defs>
</svg>
