<svg width="68" height="68" viewBox="0 0 68 68" fill="none" xmlns="http://www.w3.org/2000/svg">
<path fill-rule="evenodd" clip-rule="evenodd" d="M24.5566 26.6815C23.5955 26.6815 22.6438 26.8708 21.7559 27.2386C20.868 27.6064 20.0612 28.1455 19.3816 28.8251C18.702 29.5046 18.163 30.3114 17.7952 31.1994C17.4274 32.0873 17.2381 33.0389 17.2381 34C17.2381 34.9611 17.4274 35.9128 17.7952 36.8007C18.163 37.6886 18.702 38.4954 19.3816 39.175C20.0612 39.8546 20.868 40.3936 21.7559 40.7614C22.6438 41.1292 23.5955 41.3185 24.5566 41.3185H31.8751V26.6815H24.5566ZM31.8751 22.4315H24.5566C22.6152 22.4315 20.7534 21.6603 19.3806 20.2876C18.0079 18.9148 17.2367 17.053 17.2367 15.1116C17.2367 13.1702 18.0079 11.3084 19.3806 9.93564C20.7534 8.56289 22.6152 7.79169 24.5566 7.79169H31.8751V22.4315ZM36.1251 7.79169V22.4315H43.4436C45.36 22.3938 47.1852 21.606 48.5272 20.2374C49.8692 18.8688 50.6209 17.0284 50.6209 15.1116C50.6209 13.1948 49.8692 11.3545 48.5272 9.98581C47.1852 8.61717 45.36 7.82939 43.4436 7.79169H36.1251ZM43.4436 26.6787C41.5226 26.6784 39.6785 27.4335 38.3093 28.781C36.9401 30.1285 36.1556 31.9602 36.1251 33.881V34.1162C36.1485 35.5584 36.5976 36.9614 37.4159 38.1492C38.2342 39.337 39.3852 40.2564 40.7244 40.7922C42.0636 41.3279 43.5312 41.4559 44.9429 41.1603C46.3546 40.8646 47.6475 40.1583 48.6591 39.1302C49.6708 38.1022 50.3561 36.7981 50.629 35.3818C50.9018 33.9654 50.7501 32.5001 50.1929 31.1697C49.6356 29.8394 48.6977 28.7033 47.4969 27.9043C46.2961 27.1053 44.8859 26.6789 43.4436 26.6787ZM24.5566 45.5685C23.1084 45.568 21.6927 45.9969 20.4883 46.801C19.2839 47.6051 18.3451 48.7484 17.7905 50.0861C17.236 51.4239 17.0906 52.896 17.3728 54.3164C17.6549 55.7368 18.352 57.0416 19.3758 58.0658C20.3996 59.09 21.7041 59.7876 23.1244 60.0703C24.5447 60.353 26.0169 60.2082 27.3549 59.6542C28.6928 59.1001 29.8364 58.1617 30.641 56.9577C31.4456 55.7536 31.8751 54.338 31.8751 52.8899V45.5685H24.5566Z" fill="#90C18F"/>
</svg>
